<svg width="24" height="24" viewBox="0 0 24 24" fill="none" xmlns="http://www.w3.org/2000/svg">
<path d="M11.2508 22.5C12.8356 22.5 14.1609 21.3702 14.4656 19.875H8.03589C8.34062 21.3702 9.66642 22.5 11.2508 22.5Z" fill="white"/>
<path d="M17.3865 11.9991C17.3827 11.9991 17.3795 12 17.3757 12C13.9989 12 11.2507 9.25227 11.2507 5.875C11.2507 4.94633 11.4645 4.069 11.8364 3.27987C11.6437 3.26167 11.4486 3.25 11.2507 3.25C7.86788 3.25 5.12575 5.99213 5.12575 9.375V11.8143C5.12575 13.5461 4.36694 15.1803 3.03601 16.3055C2.59221 16.6844 2.39528 17.2883 2.55488 17.8772C2.74061 18.5623 3.41775 19 4.12801 19H18.3688C19.1141 19 19.8169 18.517 19.9681 17.7862C20.0852 17.2211 19.8841 16.6564 19.4459 16.2882C18.1737 15.2219 17.4378 13.6543 17.3865 11.9991Z" fill="white"/>
<path d="M21.7507 5.875C21.7507 8.2914 19.7921 10.25 17.3757 10.25C14.9593 10.25 13.0007 8.2914 13.0007 5.875C13.0007 3.4586 14.9593 1.5 17.3757 1.5C19.7921 1.5 21.7507 3.4586 21.7507 5.875Z" fill="#FC8D2D"/>
</svg>
