<svg width="24" height="24" viewBox="0 0 24 24" fill="none" xmlns="http://www.w3.org/2000/svg">
<path fill-rule="evenodd" clip-rule="evenodd" d="M7.21629 16.0026C7.05629 16.0026 6.89529 15.9516 6.75929 15.8476C6.43129 15.5946 6.36929 15.1236 6.62229 14.7956L9.61529 10.9056C9.73729 10.7466 9.91829 10.6436 10.1163 10.6186C10.3183 10.5926 10.5163 10.6486 10.6733 10.7736L13.4933 12.9886L15.9603 9.80562C16.2143 9.47662 16.6843 9.41562 17.0123 9.67162C17.3403 9.92562 17.4003 10.3966 17.1463 10.7236L14.2163 14.5036C14.0943 14.6616 13.9143 14.7646 13.7163 14.7886C13.5163 14.8156 13.3183 14.7576 13.1603 14.6346L10.3423 12.4206L7.81129 15.7096C7.66329 15.9016 7.44129 16.0026 7.21629 16.0026" fill="url(#paint0_linear_29265_1462)"/>
<mask id="mask0_29265_1462" style="mask-type:luminance" maskUnits="userSpaceOnUse" x="17" y="2" width="6" height="6">
<path fill-rule="evenodd" clip-rule="evenodd" d="M17.2954 2H22.6394V7.3449H17.2954V2Z" fill="white"/>
</mask>
<g mask="url(#mask0_29265_1462)">
<path fill-rule="evenodd" clip-rule="evenodd" d="M19.9674 3.5C19.3214 3.5 18.7954 4.025 18.7954 4.672C18.7954 5.318 19.3214 5.845 19.9674 5.845C20.6134 5.845 21.1394 5.318 21.1394 4.672C21.1394 4.025 20.6134 3.5 19.9674 3.5M19.9674 7.345C18.4944 7.345 17.2954 6.146 17.2954 4.672C17.2954 3.198 18.4944 2 19.9674 2C21.4414 2 22.6394 3.198 22.6394 4.672C22.6394 6.146 21.4414 7.345 19.9674 7.345" fill="url(#paint1_linear_29265_1462)"/>
</g>
<mask id="mask1_29265_1462" style="mask-type:luminance" maskUnits="userSpaceOnUse" x="2" y="2" width="20" height="21">
<path fill-rule="evenodd" clip-rule="evenodd" d="M2 2.8418H21.8619V22.7028H2V2.8418Z" fill="white"/>
</mask>
<g mask="url(#mask1_29265_1462)">
<path fill-rule="evenodd" clip-rule="evenodd" d="M16.233 22.7028H7.629C4.262 22.7028 2 20.3378 2 16.8178V8.7358C2 5.2108 4.262 2.8418 7.629 2.8418H14.897C15.311 2.8418 15.647 3.1778 15.647 3.5918C15.647 4.0058 15.311 4.3418 14.897 4.3418H7.629C5.121 4.3418 3.5 6.0658 3.5 8.7358V16.8178C3.5 19.5228 5.082 21.2028 7.629 21.2028H16.233C18.741 21.2028 20.362 19.4818 20.362 16.8178V9.7788C20.362 9.3648 20.698 9.0288 21.112 9.0288C21.526 9.0288 21.862 9.3648 21.862 9.7788V16.8178C21.862 20.3378 19.6 22.7028 16.233 22.7028" fill="url(#paint2_linear_29265_1462)"/>
</g>
<defs>
<linearGradient id="paint0_linear_29265_1462" x1="11.8851" y1="9.51318" x2="11.8851" y2="16.0026" gradientUnits="userSpaceOnUse">
<stop stop-color="#8E7CFC"/>
<stop offset="1" stop-color="#5C41FF"/>
</linearGradient>
<linearGradient id="paint1_linear_29265_1462" x1="19.9674" y1="2" x2="19.9674" y2="7.345" gradientUnits="userSpaceOnUse">
<stop stop-color="#8E7CFC"/>
<stop offset="1" stop-color="#5C41FF"/>
</linearGradient>
<linearGradient id="paint2_linear_29265_1462" x1="11.931" y1="2.8418" x2="11.931" y2="22.7028" gradientUnits="userSpaceOnUse">
<stop stop-color="#8E7CFC"/>
<stop offset="1" stop-color="#5C41FF"/>
</linearGradient>
</defs>
</svg>
