<svg width="24" height="24" viewBox="0 0 24 24" fill="none" xmlns="http://www.w3.org/2000/svg">
<g id="Icon/fill/course">
<g id="Activity">
<path id="Activity_2" fill-rule="evenodd" clip-rule="evenodd" d="M17.1799 4.41C17.1799 3.08 18.2599 2 19.5899 2C20.9199 2 21.9999 3.08 21.9999 4.41C21.9999 5.74 20.9199 6.82 19.5899 6.82C18.2599 6.82 17.1799 5.74 17.1799 4.41ZM13.3297 14.7595L16.2197 11.0305L16.1797 11.0505C16.3397 10.8305 16.3697 10.5505 16.2597 10.3005C16.1507 10.0505 15.9097 9.88053 15.6507 9.86053C15.3797 9.83053 15.1107 9.95053 14.9497 10.1705L12.5307 13.3005L9.7597 11.1205C9.5897 10.9905 9.3897 10.9395 9.1897 10.9605C8.9907 10.9905 8.8107 11.0995 8.6897 11.2595L5.7307 15.1105L5.6697 15.2005C5.4997 15.5195 5.5797 15.9295 5.8797 16.1505C6.0197 16.2405 6.1697 16.3005 6.3397 16.3005C6.5707 16.3105 6.7897 16.1895 6.9297 16.0005L9.4397 12.7695L12.2897 14.9105L12.3797 14.9695C12.6997 15.1395 13.0997 15.0605 13.3297 14.7595ZM15.4498 3.7803C15.4098 4.0303 15.3898 4.2803 15.3898 4.5303C15.3898 6.7803 17.2098 8.5993 19.4498 8.5993C19.6998 8.5993 19.9398 8.5703 20.1898 8.5303V16.5993C20.1898 19.9903 18.1898 22.0003 14.7898 22.0003H7.40076C3.99976 22.0003 1.99976 19.9903 1.99976 16.5993V9.2003C1.99976 5.8003 3.99976 3.7803 7.40076 3.7803H15.4498Z" fill="url(#paint0_linear_29265_1545)"/>
</g>
</g>
<defs>
<linearGradient id="paint0_linear_29265_1545" x1="11.9998" y1="2" x2="11.9998" y2="22.0003" gradientUnits="userSpaceOnUse">
<stop stop-color="#8E7CFC"/>
<stop offset="1" stop-color="#5C41FF"/>
</linearGradient>
</defs>
</svg>
